<svg width="10" height="10" viewBox="0 0 10 10" fill="none" xmlns="http://www.w3.org/2000/svg">
<rect width="10" height="10" rx="2" fill="#AD00FF"/>
<path d="M4.44442 8C3.98609 8 3.57505 7.9258 3.2113 7.77739C2.84754 7.62191 2.56018 7.40989 2.3492 7.14134C2.13823 6.86572 2.02183 6.55124 2 6.19788H3.02578C3.05488 6.48763 3.19311 6.72438 3.44046 6.90813C3.69509 7.09187 4.0261 7.18375 4.43351 7.18375C4.81181 7.18375 5.11009 7.10247 5.32834 6.93993C5.54659 6.77739 5.65572 6.57244 5.65572 6.32509C5.65572 6.07067 5.53932 5.88339 5.30651 5.76325C5.07371 5.63604 4.7136 5.51237 4.22617 5.39223C3.78239 5.27915 3.41864 5.16608 3.13491 5.053C2.85846 4.93286 2.61838 4.75972 2.41468 4.53357C2.21825 4.30035 2.12004 3.99647 2.12004 3.62191C2.12004 3.32509 2.21098 3.053 2.39285 2.80565C2.57473 2.5583 2.83299 2.36396 3.16765 2.22262C3.5023 2.07421 3.88424 2 4.31347 2C4.9755 2 5.51022 2.16254 5.91762 2.48763C6.32502 2.81272 6.54327 3.25795 6.57238 3.82332H5.57933C5.5575 3.51944 5.43019 3.27562 5.19739 3.09187C4.97186 2.90813 4.66631 2.81625 4.28073 2.81625C3.92425 2.81625 3.64053 2.89046 3.42955 3.03887C3.21857 3.18728 3.11308 3.38163 3.11308 3.62191C3.11308 3.81272 3.17492 3.97173 3.2986 4.09894C3.42955 4.21908 3.5896 4.31802 3.77875 4.39576C3.97518 4.46643 4.24436 4.5477 4.58628 4.63958C5.01551 4.75265 5.36472 4.86572 5.63389 4.9788C5.90307 5.08481 6.13223 5.24735 6.32139 5.46643C6.51781 5.68551 6.61966 5.97173 6.62694 6.32509C6.62694 6.64311 6.536 6.92933 6.35412 7.18375C6.17225 7.43816 5.91398 7.63958 5.57933 7.78799C5.25195 7.92933 4.87365 8 4.44442 8Z" fill="white"/>
<path d="M8.34524 7.9682C8.15609 7.9682 7.99604 7.90459 7.86509 7.77739C7.73414 7.65018 7.66866 7.4947 7.66866 7.31095C7.66866 7.12721 7.73414 6.97173 7.86509 6.84452C7.99604 6.71731 8.15609 6.65371 8.34524 6.65371C8.52712 6.65371 8.6799 6.71731 8.80357 6.84452C8.93452 6.97173 9 7.12721 9 7.31095C9 7.4947 8.93452 7.65018 8.80357 7.77739C8.6799 7.90459 8.52712 7.9682 8.34524 7.9682Z" fill="white"/>
</svg>
