<svg width="71" height="21" viewBox="0 0 71 21" fill="none" xmlns="http://www.w3.org/2000/svg">
<path d="M6.18206 20.3064C5.02399 20.3064 3.98513 20.1002 3.06548 19.6878C2.14584 19.2582 1.41353 18.6825 0.868554 17.9608C0.340609 17.239 0.0510914 16.44 0 15.5636H3.60194C3.67006 16.1135 3.93404 16.5688 4.39386 16.9297C4.87071 17.2906 5.45826 17.471 6.15651 17.471C6.83773 17.471 7.36568 17.3335 7.74035 17.0586C8.13205 16.7837 8.3279 16.4314 8.3279 16.0018C8.3279 15.5378 8.08947 15.1941 7.61262 14.9707C7.15279 14.7301 6.41197 14.4724 5.39014 14.1974C4.33425 13.9397 3.4657 13.6733 2.78448 13.3984C2.12029 13.1234 1.54126 12.7024 1.04737 12.1353C0.570521 11.5683 0.332094 10.8036 0.332094 9.84125C0.332094 9.05078 0.55349 8.32904 0.996282 7.67605C1.4561 7.02305 2.10326 6.50752 2.93775 6.12947C3.78928 5.75142 4.78556 5.56239 5.9266 5.56239C7.61262 5.56239 8.95802 5.992 9.96282 6.85121C10.9676 7.69323 11.5211 8.83598 11.6233 10.2794H8.20017C8.14908 9.71237 7.91065 9.26558 7.48489 8.93908C7.07616 8.5954 6.52267 8.42356 5.82442 8.42356C5.17726 8.42356 4.67486 8.54385 4.31722 8.78442C3.97661 9.025 3.80631 9.36009 3.80631 9.7897C3.80631 10.2709 4.04473 10.6403 4.52159 10.8981C4.99844 11.1387 5.73927 11.3878 6.74406 11.6456C7.76589 11.9033 8.6089 12.1697 9.27309 12.4447C9.93727 12.7196 10.5078 13.1492 10.9846 13.7335C11.4785 14.3005 11.734 15.0566 11.751 16.0018C11.751 16.8266 11.5211 17.5655 11.0613 18.2185C10.6185 18.8715 9.97134 19.3871 9.11981 19.7651C8.28532 20.126 7.30607 20.3064 6.18206 20.3064Z" fill="black"/>
<path d="M13.684 12.8828C13.684 11.4394 13.965 10.1592 14.527 9.04219C15.106 7.92522 15.8809 7.06601 16.8516 6.46456C17.8394 5.86312 18.9379 5.56239 20.147 5.56239C21.2029 5.56239 22.1226 5.7772 22.906 6.2068C23.7064 6.6364 24.345 7.17771 24.8219 7.8307V5.79438H28.4238V20.0744H24.8219V17.9865C24.3621 18.6567 23.7234 19.2152 22.906 19.662C22.1055 20.0916 21.1774 20.3064 20.1215 20.3064C18.9294 20.3064 17.8394 19.9971 16.8516 19.3785C15.8809 18.7598 15.106 17.892 14.527 16.7751C13.965 15.6409 13.684 14.3435 13.684 12.8828ZM24.8219 12.9344C24.8219 12.058 24.6516 11.3105 24.311 10.6919C23.9704 10.0561 23.5106 9.5749 22.9315 9.2484C22.3525 8.90471 21.7309 8.73287 21.0667 8.73287C20.4025 8.73287 19.7894 8.89612 19.2274 9.22262C18.6654 9.54912 18.2056 10.0303 17.8479 10.6661C17.5073 11.2847 17.337 12.0236 17.337 12.8828C17.337 13.7421 17.5073 14.4982 17.8479 15.1512C18.2056 15.787 18.6654 16.2767 19.2274 16.6204C19.8064 16.9641 20.4195 17.1359 21.0667 17.1359C21.7309 17.1359 22.3525 16.9727 22.9315 16.6462C23.5106 16.3025 23.9704 15.8213 24.311 15.2027C24.6516 14.5669 24.8219 13.8108 24.8219 12.9344Z" fill="black"/>
<path d="M30.7144 12.8828C30.7144 11.4394 30.9954 10.1592 31.5574 9.04219C32.1365 7.92522 32.9199 7.06601 33.9077 6.46456C34.8954 5.86312 35.9939 5.56239 37.203 5.56239C38.1227 5.56239 38.9998 5.7686 39.8343 6.18102C40.6687 6.57626 41.3329 7.10897 41.8268 7.77915V1H45.4543V20.0744H41.8268V17.9608C41.384 18.6653 40.7624 19.2324 39.962 19.662C39.1615 20.0916 38.2334 20.3064 37.1775 20.3064C35.9854 20.3064 34.8954 19.9971 33.9077 19.3785C32.9199 18.7598 32.1365 17.892 31.5574 16.7751C30.9954 15.6409 30.7144 14.3435 30.7144 12.8828ZM41.8524 12.9344C41.8524 12.058 41.6821 11.3105 41.3414 10.6919C41.0008 10.0561 40.541 9.5749 39.962 9.2484C39.3829 8.90471 38.7613 8.73287 38.0971 8.73287C37.433 8.73287 36.8199 8.89612 36.2579 9.22262C35.6958 9.54912 35.236 10.0303 34.8784 10.6661C34.5378 11.2847 34.3675 12.0236 34.3675 12.8828C34.3675 13.7421 34.5378 14.4982 34.8784 15.1512C35.236 15.787 35.6958 16.2767 36.2579 16.6204C36.8369 16.9641 37.45 17.1359 38.0971 17.1359C38.7613 17.1359 39.3829 16.9727 39.962 16.6462C40.541 16.3025 41.0008 15.8213 41.3414 15.2027C41.6821 14.5669 41.8524 13.8108 41.8524 12.9344Z" fill="black"/>
<path d="M56.2601 12.8828C56.2601 11.4394 56.5411 10.1592 57.1031 9.04219C57.6822 7.92522 58.4571 7.06601 59.4278 6.46456C60.4156 5.86312 61.514 5.56239 62.7232 5.56239C63.7791 5.56239 64.6987 5.7772 65.4821 6.2068C66.2826 6.6364 66.9212 7.17771 67.3981 7.8307V5.79438H71V20.0744H67.3981V17.9865C66.9382 18.6567 66.2996 19.2152 65.4821 19.662C64.6817 20.0916 63.7535 20.3064 62.6976 20.3064C61.5055 20.3064 60.4156 19.9971 59.4278 19.3785C58.4571 18.7598 57.6822 17.892 57.1031 16.7751C56.5411 15.6409 56.2601 14.3435 56.2601 12.8828ZM67.3981 12.9344C67.3981 12.058 67.2277 11.3105 66.8871 10.6919C66.5465 10.0561 66.0867 9.5749 65.5077 9.2484C64.9286 8.90471 64.307 8.73287 63.6428 8.73287C62.9786 8.73287 62.3656 8.89612 61.8035 9.22262C61.2415 9.54912 60.7817 10.0303 60.4241 10.6661C60.0835 11.2847 59.9132 12.0236 59.9132 12.8828C59.9132 13.7421 60.0835 14.4982 60.4241 15.1512C60.7817 15.787 61.2415 16.2767 61.8035 16.6204C62.3826 16.9641 62.9957 17.1359 63.6428 17.1359C64.307 17.1359 64.9286 16.9727 65.5077 16.6462C66.0867 16.3025 66.5465 15.8213 66.8871 15.2027C67.2277 14.5669 67.3981 13.8108 67.3981 12.9344Z" fill="black"/>
<rect x="49.0355" y="6.80591" width="3.56749" height="13.5005" fill="black"/>
<circle cx="51" cy="3" r="3" fill="#D988FF"/>
</svg>
