<svg width="21" height="19" viewBox="0 0 21 19" fill="none" xmlns="http://www.w3.org/2000/svg">
<path d="M17.85 6.33333C16.975 6.33333 16.2313 6.02546 15.6188 5.40972C15.0063 4.79398 14.7 4.0463 14.7 3.16667C14.7 2.28704 15.0063 1.53935 15.6188 0.923611C16.2313 0.30787 16.975 0 17.85 0C18.725 0 19.4688 0.30787 20.0813 0.923611C20.6938 1.53935 21 2.28704 21 3.16667C21 4.0463 20.6938 4.79398 20.0813 5.40972C19.4688 6.02546 18.725 6.33333 17.85 6.33333ZM2.1 19C1.5225 19 1.02795 18.7931 0.616352 18.3793C0.204752 17.9656 -0.000698217 17.4687 1.78268e-06 16.8889V4.22222C1.78268e-06 3.64167 0.205802 3.1445 0.617402 2.73072C1.029 2.31694 1.5232 2.11041 2.1 2.11111H12.705C12.635 2.46296 12.6 2.81481 12.6 3.16667C12.6 3.51852 12.635 3.87037 12.705 4.22222C12.8275 4.78518 13.0288 5.30874 13.3088 5.79289C13.5888 6.27704 13.93 6.70348 14.3325 7.07222L10.5 9.5L2.1 4.22222V6.33333L10.5 11.6111L16.0388 8.12778C16.3363 8.23333 16.6338 8.3125 16.9313 8.36528C17.2288 8.41806 17.535 8.44444 17.85 8.44444C18.41 8.44444 18.9613 8.35648 19.5038 8.18055C20.0463 8.00463 20.545 7.74074 21 7.38889V16.8889C21 17.4694 20.7942 17.9666 20.3826 18.3804C19.971 18.7942 19.4768 19.0007 18.9 19H2.1Z" fill="#D0D0D0"/>
</svg>
